<?xml version="1.0" encoding="UTF-8"?>
<svg width="24px" height="16px" viewBox="0 0 24 16" version="1.1" xmlns="http://www.w3.org/2000/svg" xmlns:xlink="http://www.w3.org/1999/xlink">
    <!-- Generator: Sketch 46.1 (44463) - http://www.bohemiancoding.com/sketch -->
    <title>Shape</title>
    <desc>Created with Sketch.</desc>
    <defs></defs>
    <g id="Page-1" stroke="none" stroke-width="1" fill="none" fill-rule="evenodd">
        <g id="默认" transform="translate(-241.000000, -516.000000)" fill-rule="nonzero" fill="#E6E6E6">
            <path d="M241.410667,531.396 C241.170667,531.345333 241,531.135556 241,530.895556 C241,522.584444 250.866667,520.815556 253.155556,520.516889 L253.155556,516.704444 C253.155556,516.516889 253.259556,516.343556 253.427556,516.256444 C253.594667,516.167556 253.794667,516.18 253.950222,516.280444 L264.490667,523.377333 C264.629333,523.470667 264.712889,523.627111 264.712889,523.801333 C264.712889,523.969333 264.629333,524.125778 264.490667,524.221778 L253.953778,531.317778 C253.797333,531.42 253.596444,531.430667 253.429333,531.343556 C253.262222,531.254667 253.16,531.079556 253.16,530.893778 L253.16,526.789778 C251.500444,526.802222 250.129778,526.876889 248.985778,527.013778 C243.504889,527.661778 242.040889,530.953333 241.978667,531.093778 L241.978667,531.093778 C241.896,531.283111 241.710222,531.404889 241.511111,531.404889 C241.478222,531.404 241.441778,531.402222 241.410667,531.396 Z" id="Shape"></path>
        </g>
    </g>
</svg>