<?xml version="1.0" encoding="UTF-8"?>
<svg width="12px" height="12px" viewBox="0 0 12 12" version="1.1" xmlns="http://www.w3.org/2000/svg" xmlns:xlink="http://www.w3.org/1999/xlink">
    <!-- Generator: Sketch 46.1 (44463) - http://www.bohemiancoding.com/sketch -->
    <title>Fill 1</title>
    <desc>Created with Sketch.</desc>
    <defs></defs>
    <g id="Page-1" stroke="none" stroke-width="1" fill="none" fill-rule="evenodd">
        <g id="默认" transform="translate(-1053.000000, -391.000000)" fill="#FFFFFF">
            <path d="M1065,395.500037 L1060.49996,395.500037 L1062.18192,393.817965 C1061.33196,392.968037 1060.20199,392.499963 1059,392.499963 C1057.79801,392.499963 1056.66795,392.968037 1055.81799,393.817965 C1054.96804,394.667922 1054.49999,395.798014 1054.49999,397 C1054.49999,398.201957 1054.96804,399.331932 1055.81799,400.182006 C1056.66795,401.031846 1057.79801,401.49989 1059,401.49989 C1060.20199,401.49989 1061.33196,401.031846 1062.18192,400.181889 C1062.25285,400.110932 1062.32096,400.037925 1062.38653,399.963189 L1063.51524,400.950811 C1062.41547,402.206674 1060.80049,403 1059,403 C1055.68625,403 1053,400.313607 1053,397 C1053,393.686247 1055.68625,391 1059,391 C1060.65688,391 1062.15661,391.671774 1063.24231,392.75757 L1065,391 L1065,395.500037 Z" id="Fill-1"></path>
        </g>
    </g>
</svg>