<?xml version="1.0" standalone="no"?><!DOCTYPE svg PUBLIC "-//W3C//DTD SVG 1.1//EN" "http://www.w3.org/Graphics/SVG/1.1/DTD/svg11.dtd"><svg t="1511837389988" class="icon" style="" viewBox="0 0 1024 1024" version="1.1" xmlns="http://www.w3.org/2000/svg" p-id="1822" xmlns:xlink="http://www.w3.org/1999/xlink" width="64" height="64"><defs><style type="text/css"></style></defs><path d="M621.730909 804.584727A36.561455 36.561455 0 0 1 585.146182 768V365.730909a36.561455 36.561455 0 1 1 73.122909 0V768a36.538182 36.538182 0 0 1-36.538182 36.584727zM402.269091 804.584727A36.538182 36.538182 0 0 1 365.730909 768V365.730909a36.538182 36.538182 0 0 1 36.538182-36.584727 36.538182 36.538182 0 0 1 36.584727 36.584727V768a36.538182 36.538182 0 0 1-36.584727 36.584727zM987.461818 182.853818h-182.923636V109.730909c0-60.509091-48.779636-109.730909-108.869818-109.730909h-366.545455a109.800727 109.800727 0 0 0-109.684364 109.730909v73.146182H36.538182C16.360727 182.853818 0 199.237818 0 219.461818S16.360727 256 36.538182 256h950.923636a36.561455 36.561455 0 1 0 0-73.146182zM292.538182 109.730909c0-20.130909 16.453818-36.584727 36.584727-36.584727h366.545455c20.037818 0 35.770182 16.081455 35.770181 36.584727v73.146182H292.538182V109.730909z" fill="#999999" p-id="1823"></path><path d="M768.186182 1024H256.093091a109.847273 109.847273 0 0 1-109.730909-109.684364V365.172364a36.584727 36.584727 0 1 1 73.122909 0v549.143272c0 20.177455 16.407273 36.538182 36.584727 36.538182h512.093091a36.538182 36.538182 0 0 0 36.538182-36.538182V366.685091a36.584727 36.584727 0 1 1 73.122909 0v547.630545A109.777455 109.777455 0 0 1 768.186182 1024z" fill="#999999" p-id="1824"></path></svg>