<?xml version="1.0" encoding="UTF-8"?>
<svg width="21px" height="17px" viewBox="0 0 21 17" version="1.1" xmlns="http://www.w3.org/2000/svg" xmlns:xlink="http://www.w3.org/1999/xlink">
    <!-- Generator: Sketch 46.1 (44463) - http://www.bohemiancoding.com/sketch -->
    <title>Group 2</title>
    <desc>Created with Sketch.</desc>
    <defs></defs>
    <g id="Page-1" stroke="none" stroke-width="1" fill="none" fill-rule="evenodd">
        <g id="默认" transform="translate(-497.000000, -515.000000)" fill-rule="nonzero" fill="#F66039">
            <g id="Group-2" transform="translate(497.000000, 515.000000)">
                <path d="M0.723345833,7.76544167 L18.0823,7.76544167 C18.2781979,7.76544167 18.4476146,7.69371667 18.5908271,7.55054375 C18.7338812,7.40756875 18.8054083,7.23791458 18.8054083,7.04209583 L18.8054083,5.59544375 C18.8054083,5.39942708 18.7338812,5.23005 18.5908271,5.08691667 C18.4476542,4.94374375 18.2782375,4.87221667 18.0823,4.87221667 L0.723345833,4.87221667 C0.527329167,4.87221667 0.357872917,4.94374375 0.214660417,5.08691667 C0.07160625,5.23001042 0,5.39954583 0,5.59544375 L0,7.04209583 C0,7.23791458 0.07160625,7.40756875 0.2147,7.55054375 C0.357991667,7.69371667 0.5274875,7.76544167 0.723345833,7.76544167 Z" id="Shape"></path>
                <path d="M0.723345833,3.42556458 L13.7421854,3.42556458 C13.9380437,3.42556458 14.1077771,3.35395833 14.2509896,3.21086458 C14.3940042,3.06769167 14.4656896,2.89823542 14.4656896,2.7023375 L14.4656896,1.25568542 C14.4656896,1.05982708 14.3940042,0.890370833 14.2509896,0.747039583 C14.1078167,0.604064583 13.9380833,0.532339583 13.7421854,0.532339583 L0.723345833,0.532339583 C0.527329167,0.532339583 0.357872917,0.604064583 0.214660417,0.747039583 C0.07160625,0.8902125 0,1.05982708 0,1.25568542 L0,2.7023375 C0,2.89819583 0.07160625,3.06765208 0.2147,3.21086458 C0.357991667,3.35395833 0.5274875,3.42556458 0.723345833,3.42556458 Z" id="Shape"></path>
                <path d="M20.0373208,13.7662354 C19.8941479,13.6230625 19.7244146,13.5514167 19.528675,13.5514167 L0.723345833,13.5514167 C0.527329167,13.5514167 0.357872917,13.6230625 0.214660417,13.7662354 C0.07160625,13.9093292 0,14.0789042 0,14.2747625 L0,15.721375 C0,15.9172333 0.07160625,16.0868083 0.2147,16.2301792 C0.35803125,16.373075 0.527566667,16.4447604 0.723385417,16.4447604 L19.5287146,16.4447604 C19.7244146,16.4447604 19.8941479,16.373075 20.0373604,16.2301792 C20.1804146,16.0868479 20.2521,15.9172729 20.2521,15.721375 L20.2521,14.2747625 C20.2520208,14.0789042 20.180375,13.9093292 20.0373208,13.7662354 Z" id="Shape"></path>
                <path d="M0.723345833,12.1050021 L15.1890354,12.1050021 C15.3848937,12.1050021 15.5545083,12.0333167 15.6975625,11.8901438 C15.8407354,11.7470896 15.9124208,11.5775146 15.9124208,11.3816167 L15.9124208,9.9351625 C15.9124208,9.73942292 15.8407354,9.56968958 15.6975625,9.42663542 C15.5545479,9.2834625 15.3849333,9.21177708 15.1890354,9.21177708 L0.723345833,9.21177708 C0.527329167,9.21177708 0.357872917,9.2834625 0.214660417,9.42663542 C0.07160625,9.56968958 0,9.73942292 0,9.9351625 L0,11.3817354 C0,11.5775938 0.07160625,11.7473271 0.2147,11.8902625 C0.357991667,12.0334354 0.5274875,12.1050021 0.723345833,12.1050021 Z" id="Shape"></path>
            </g>
        </g>
    </g>
</svg>