<?xml version="1.0" encoding="UTF-8"?>
<svg width="16px" height="4px" viewBox="0 0 16 4" version="1.1" xmlns="http://www.w3.org/2000/svg" xmlns:xlink="http://www.w3.org/1999/xlink">
    <!-- Generator: Sketch 46.1 (44463) - http://www.bohemiancoding.com/sketch -->
    <title>Shape</title>
    <desc>Created with Sketch.</desc>
    <defs></defs>
    <g id="Page-1" stroke="none" stroke-width="1" fill="none" fill-rule="evenodd">
        <g id="默认" transform="translate(-497.000000, -524.000000)" fill-rule="nonzero" fill="#F66039">
            <path d="M497.723346,527.105002 L512.189035,527.105002 C512.384894,527.105002 512.554508,527.033317 512.697563,526.890144 C512.840735,526.74709 512.912421,526.577515 512.912421,526.381617 L512.912421,524.935163 C512.912421,524.739423 512.840735,524.56969 512.697563,524.426635 C512.554548,524.283463 512.384933,524.211777 512.189035,524.211777 L497.723346,524.211777 C497.527329,524.211777 497.357873,524.283463 497.21466,524.426635 C497.071606,524.56969 497,524.739423 497,524.935163 L497,526.381735 C497,526.577594 497.071606,526.747327 497.2147,526.890263 C497.357992,527.033435 497.527488,527.105002 497.723346,527.105002 Z" id="Shape"></path>
        </g>
    </g>
</svg>