<?xml version="1.0" encoding="UTF-8"?>
<svg width="17px" height="17px" viewBox="0 0 17 17" version="1.1" xmlns="http://www.w3.org/2000/svg" xmlns:xlink="http://www.w3.org/1999/xlink">
    <!-- Generator: Sketch 46.1 (44463) - http://www.bohemiancoding.com/sketch -->
    <title>Shape</title>
    <desc>Created with Sketch.</desc>
    <defs></defs>
    <g id="Page-1" stroke="none" stroke-width="1" fill="none" fill-rule="evenodd">
        <g id="默认" transform="translate(-453.000000, -515.000000)" fill-rule="nonzero" fill="#F66039">
            <path d="M458.403696,516.564548 C458.403696,516.210909 458.685422,515.924403 459.032507,515.924403 L469.371189,515.924403 C469.71823,515.924403 470,516.210909 470,516.564548 C470,516.918187 469.718587,517.204694 469.371189,517.204694 L459.032507,517.204694 C458.685422,517.204694 458.403696,516.918187 458.403696,516.564548 Z M459.032507,520.334247 L465.739077,520.334247 C466.086385,520.334247 466.367888,520.047605 466.367888,519.694057 C466.367888,519.340463 466.08643,519.053911 465.739077,519.053911 L459.032507,519.053911 C458.685422,519.053911 458.403696,519.340191 458.403696,519.694057 C458.403696,520.047832 458.685422,520.334247 459.032507,520.334247 Z M469.371189,527.090292 L459.032507,527.090292 C458.685422,527.090292 458.403696,527.376798 458.403696,527.730483 C458.403696,528.084076 458.685422,528.370628 459.032507,528.370628 L469.371189,528.370628 C469.71823,528.370628 470,528.084122 470,527.730483 C470,527.376798 469.71823,527.090292 469.371189,527.090292 Z M465.738809,530.219664 C466.086118,530.219664 466.367843,530.50617 466.367888,530.859855 C466.367888,531.213494 466.086385,531.5 465.739077,531.5 L459.032507,531.5 C458.685422,531.5 458.403696,531.213448 458.403696,530.859855 C458.403696,530.505943 458.685422,530.219664 459.032507,530.219664 L465.738809,530.219664 Z M454.775435,516.600006 L454.775435,516.600006 C455.590301,516.600006 456.250881,517.260586 456.250881,518.075453 L456.250881,518.128857 C456.250881,518.943724 455.590301,519.604304 454.775435,519.604304 L454.775435,519.604304 C453.960568,519.604304 453.299988,518.943724 453.299988,518.128857 L453.299988,518.075453 C453.299988,517.260586 453.960568,516.600006 454.775435,516.600006 L454.775435,516.600006 Z M454.775435,527.799988 L454.775435,527.799988 C455.590301,527.799988 456.250881,528.460568 456.250881,529.275435 L456.250881,529.328839 C456.250881,530.143706 455.590301,530.804286 454.775435,530.804286 L454.775435,530.804286 C453.960568,530.804286 453.299988,530.143706 453.299988,529.328839 L453.299988,529.275435 C453.299988,528.460568 453.960568,527.799988 454.775435,527.799988 L454.775435,527.799988 Z" id="Shape"></path>
        </g>
    </g>
</svg>