<?xml version="1.0" standalone="no"?><!DOCTYPE svg PUBLIC "-//W3C//DTD SVG 1.1//EN" "http://www.w3.org/Graphics/SVG/1.1/DTD/svg11.dtd"><svg t="1512639121488" class="icon" style="" viewBox="0 0 1024 1024" version="1.1" xmlns="http://www.w3.org/2000/svg" p-id="2595" xmlns:xlink="http://www.w3.org/1999/xlink" width="64" height="64"><defs><style type="text/css"></style></defs><path d="M583.168 523.776L958.464 148.48c18.944-18.944 18.944-50.176 0-69.12l-2.048-2.048c-18.944-18.944-50.176-18.944-69.12 0L512 453.12 136.704 77.312c-18.944-18.944-50.176-18.944-69.12 0l-2.048 2.048C46.08 98.304 46.08 129.536 65.536 148.48l375.296 375.296-375.296 375.296c-18.944 18.944-18.944 50.176 0 69.12l2.048 2.048c18.944 18.944 50.176 18.944 69.12 0l375.296-375.296 375.296 375.296c18.944 18.944 50.176 18.944 69.12 0l2.048-2.048c18.944-18.944 18.944-50.176 0-69.12l-375.296-375.296z" p-id="2596" fill="#ffffff"></path></svg>