<?xml version="1.0" standalone="no"?><!DOCTYPE svg PUBLIC "-//W3C//DTD SVG 1.1//EN" "http://www.w3.org/Graphics/SVG/1.1/DTD/svg11.dtd"><svg t="1505788347843" class="icon" style="" viewBox="0 0 1024 1024" version="1.1" xmlns="http://www.w3.org/2000/svg" p-id="2378" xmlns:xlink="http://www.w3.org/1999/xlink" width="16" height="16"><defs><style type="text/css"></style></defs><path d="M618.112 513.664l320.512-320.512c29.44-29.44 29.44-77.056 0-106.496s-77.056-29.44-106.496 0L511.616 407.168 195.584 91.136c-29.184-29.184-76.416-29.184-105.472 0-29.184 29.184-29.184 76.416 0 105.472l316.032 316.032L86.656 832.128c-29.44 29.44-29.44 77.056 0 106.496s77.056 29.44 106.496 0l319.36-319.36 316.032 316.032c29.184 29.184 76.416 29.184 105.472 0 29.184-29.184 29.184-76.416 0-105.472l-315.904-316.16z" p-id="2379" fill="#f66039"></path></svg>