<?xml version="1.0" encoding="UTF-8"?>
<svg width="84px" height="57px" viewBox="0 0 84 57" version="1.1" xmlns="http://www.w3.org/2000/svg" xmlns:xlink="http://www.w3.org/1999/xlink">
    <!-- Generator: Sketch 46.1 (44463) - http://www.bohemiancoding.com/sketch -->
    <title>Page 1</title>
    <desc>Created with Sketch.</desc>
    <defs>
        <polygon id="path-1" points="5.62178904e-21 0.124731868 5.62178904e-21 56.9998747 83.9076415 56.9998747 83.9076415 0.124731868"></polygon>
    </defs>
    <g id="Page-1" stroke="none" stroke-width="1" fill="none" fill-rule="evenodd">
        <g id="默认" transform="translate(-512.000000, -180.000000)">
            <g id="Page-1" transform="translate(512.000000, 180.000000)">
                <g id="Group-3">
                    <mask id="mask-2" fill="white">
                        <use xlink:href="#path-1"></use>
                    </mask>
                    <g id="Clip-2"></g>
                    <path d="M79.2194044,4.84424835 L79.2194044,44.7931055 L64.4459822,29.9229956 C63.5309007,29.0018088 62.0469007,29.0018088 61.1309896,29.9229956 L52.1251526,38.9891275 L31.4756711,18.2018747 C30.5603822,17.2808967 29.0761748,17.2804791 28.1604711,18.2018747 L4.68817481,41.8284791 L4.68817481,4.84424835 L79.2194044,4.84424835 Z M65.3289156,52.280567 L55.4407674,42.3262374 L62.788797,34.9287648 L78.6807674,50.9248857 C78.8442044,51.0892044 79.0263081,51.2232484 79.2196119,51.3288967 L79.2196119,52.2807758 L65.3289156,52.2807758 L65.3289156,52.280567 Z M4.68817481,48.5024901 L29.8180711,23.2072264 L58.6983081,52.280567 L4.68817481,52.280567 L4.68817481,48.5024901 Z M2.3442637,56.9998747 L81.563523,56.9998747 C82.8579526,56.9998747 83.9076415,55.9433912 83.9076415,54.6403253 L83.9076415,2.48449011 C83.9076415,1.18142418 82.8579526,0.124731868 81.563523,0.124731868 L2.3442637,0.124731868 C1.04962667,0.124731868 -6.22222222e-05,1.18142418 -6.22222222e-05,2.48449011 L-6.22222222e-05,54.6405341 C-6.22222222e-05,55.9436 1.04962667,56.9998747 2.3442637,56.9998747 L2.3442637,56.9998747 Z" id="Fill-1" fill="#BFBFBF" mask="url(#mask-2)"></path>
                </g>
                <path d="M52,13.7611313 C54.3373587,13.7611313 56.2387138,15.6625086 56.2387138,18.0001053 C56.2387138,20.3374914 54.3375693,22.2388687 52,22.2388687 C49.6624307,22.2388687 47.7610756,20.3374914 47.7610756,18.0001053 C47.7610756,15.6625086 49.6626413,13.7611313 52,13.7611313 M52,27 C56.9626483,27 61,22.9626011 61,18.0001053 C61,13.0373989 56.9626483,9 52,9 C47.0373517,9 43,13.0373989 43,18.0001053 C43,22.9626011 47.0373517,27 52,27" id="Fill-4" fill="#BFBFBF"></path>
            </g>
        </g>
    </g>
</svg>