<?xml version="1.0" encoding="UTF-8"?>
<svg width="18px" height="18px" viewBox="0 0 18 18" version="1.1" xmlns="http://www.w3.org/2000/svg" xmlns:xlink="http://www.w3.org/1999/xlink">
    <!-- Generator: Sketch 46.1 (44463) - http://www.bohemiancoding.com/sketch -->
    <title>Page 1</title>
    <desc>Created with Sketch.</desc>
    <defs></defs>
    <g id="Page-1" stroke="none" stroke-width="1" fill="none" fill-rule="evenodd">
        <g id="全屏1" transform="translate(-132.000000, -125.000000)" fill="#724829">
            <path d="M141,125 C139.759609,125 138.591351,125.234374 137.495192,125.703124 C136.399034,126.171878 135.443514,126.813697 134.628606,127.628606 C133.813698,128.443514 133.171877,129.399034 132.703125,130.495192 C132.234373,131.591351 132,132.759609 132,134 C132,135.240391 132.234373,136.408649 132.703125,137.504808 C133.171877,138.600966 133.813698,139.556486 134.628606,140.371394 C135.443514,141.186302 136.399034,141.828123 137.495192,142.296875 C138.591351,142.765627 139.759609,143 141,143 C142.240391,143 143.408649,142.765627 144.504808,142.296875 C145.600966,141.828123 146.556486,141.186302 147.371394,140.371394 C148.186303,139.556486 148.828122,138.600966 149.296876,137.504808 C149.765626,136.408649 150,135.240391 150,134 C150,132.759609 149.765626,131.591351 149.296876,130.495192 C148.828122,129.399034 148.186303,128.443514 147.371394,127.628606 C146.556486,126.813697 145.600966,126.171878 144.504808,125.703124 C143.408649,125.234374 142.240391,125 141,125 Z M141,139 C140.722221,139 140.486112,138.902779 140.291667,138.708333 C140.097221,138.513888 140,138.277779 140,138 C140,137.722221 140.097221,137.486112 140.291667,137.291667 C140.486112,137.097221 140.722221,137 141,137 C141.277779,137 141.513888,137.097221 141.708333,137.291667 C141.902779,137.486112 142,137.722221 142,138 C142,138.277779 141.902779,138.513888 141.708333,138.708333 C141.513888,138.902779 141.277779,139 141,139 Z M142,133.95 C142,134.241668 141.902779,134.489582 141.708333,134.69375 C141.513888,134.897918 141.277779,135 141,135 C140.722221,135 140.486112,134.897918 140.291667,134.69375 C140.097221,134.489582 140,134.241668 140,133.95 L140,129.05 C140,128.758332 140.097221,128.510418 140.291667,128.30625 C140.486112,128.102082 140.722221,128 141,128 C141.277779,128 141.513888,128.102082 141.708333,128.30625 C141.902779,128.510418 142,128.758332 142,129.05 L142,133.95 Z" id="Page-1"></path>
        </g>
    </g>
</svg>