<?xml version="1.0" standalone="no"?><!DOCTYPE svg PUBLIC "-//W3C//DTD SVG 1.1//EN" "http://www.w3.org/Graphics/SVG/1.1/DTD/svg11.dtd"><svg t="1511838585822" class="icon" style="" viewBox="0 0 1024 1024" version="1.1" xmlns="http://www.w3.org/2000/svg" p-id="8119" xmlns:xlink="http://www.w3.org/1999/xlink" width="64" height="64"><defs><style type="text/css"></style></defs><path d="M325.750154 217.639385c0 39.778462-32.295385 71.68-72.073846 71.68-39.384615 0-71.68-31.901538-71.68-71.68 0-39.778462 32.295385-72.073846 71.68-72.073846C293.454769 145.565538 325.750154 177.860923 325.750154 217.639385zM669.971692 711.522462l-630.153846 0c-21.661538 0-39.384615-17.723077-39.384615-39.384615l0-630.153846c0-21.661538 17.723077-39.384615 39.384615-39.384615l630.153846 0c21.661538 0 39.384615 17.723077 39.384615 39.384615l0 630.153846C709.356308 693.799385 691.633231 711.522462 669.971692 711.522462zM502.193231 303.104l127.054769 169.668923 1.339077 0L630.587077 81.368615l-551.384615 0 0 409.993846 64.590769-80.777846c0 0 16.147692-22.055385 35.84-22.055385s34.658462 20.125538 34.658462 20.125538l59.076923 67.308308c0 0 7.483077 11.854769 23.236923 11.854769 14.966154 0 21.267692-11.854769 21.267692-11.854769l112.246154-173.252923c0 0 8.664615-13.390769 38.596923-13.390769C494.710154 289.319385 502.193231 303.104 502.193231 303.104zM253.282462 750.907077l498.609231 85.858462c21.267692 3.544615 41.787077-10.988308 45.686154-32.295385l106.732308-621.095385c3.544615-21.267692-10.673231-41.747692-32.295385-45.292308l-123.273846-21.267692 0 79.950769 71.325538 12.209231-71.325538 413.932308 0 49.230769c0 43.323077-35.446154 78.769231-78.769231 78.769231L253.282462 750.907077zM993.319385 330.279385l-71.286154-16.935385-13.390769 77.942154 28.317538 6.695385-107.874462 460.051692-15.714462-3.584c-14.611692 13.824-33.516308 22.055385-54.784 22.055385-4.292923 0-9.058462-0.393846-13.390769-1.142154l-545.476923-93.774769-11.421538 47.300923c-4.726154 21.228308 8.270769 42.535385 29.538462 47.616l613.612308 143.753846c20.873846 5.159385 42.141538-8.270769 47.261538-29.144615l143.753846-613.651692C1027.584 356.273231 1014.587077 335.399385 993.319385 330.279385z" p-id="8120" fill="#999999"></path></svg>