<?xml version="1.0" encoding="UTF-8"?>
<svg width="18px" height="17px" viewBox="0 0 18 17" version="1.1" xmlns="http://www.w3.org/2000/svg" xmlns:xlink="http://www.w3.org/1999/xlink">
    <!-- Generator: Sketch 46.1 (44463) - http://www.bohemiancoding.com/sketch -->
    <title>Shape</title>
    <desc>Created with Sketch.</desc>
    <defs></defs>
    <g id="Page-1" stroke="none" stroke-width="1" fill="none" fill-rule="evenodd">
        <g id="默认" transform="translate(-413.000000, -515.000000)" fill-rule="nonzero" fill="#F66039">
            <path d="M418.49362,516.581382 C418.49362,516.228249 418.780034,515.942153 419.132895,515.942153 L429.643626,515.942153 C429.996442,515.942153 430.282901,516.228249 430.282901,516.581382 C430.282901,516.934516 429.996805,517.220612 429.643626,517.220612 L419.132895,517.220612 C418.780034,517.220612 418.49362,516.934516 418.49362,516.581382 Z M419.132895,520.345688 L425.951071,520.345688 C426.304159,520.345688 426.590346,520.059456 426.590346,519.706414 C426.590346,519.353326 426.304204,519.067184 425.951071,519.067184 L419.132895,519.067184 C418.780034,519.067184 418.49362,519.353054 418.49362,519.706414 C418.49362,520.059683 418.780034,520.345688 419.132895,520.345688 Z M429.643626,527.092068 L419.132895,527.092068 C418.780034,527.092068 418.49362,527.378164 418.49362,527.731343 C418.49362,528.084431 418.780034,528.370572 419.132895,528.370572 L429.643626,528.370572 C429.996442,528.370572 430.282901,528.084476 430.282901,527.731343 C430.282901,527.378164 429.996442,527.092068 429.643626,527.092068 Z M425.950799,530.216963 L419.132895,530.216963 C418.780034,530.216963 418.49362,530.502833 418.49362,530.856238 C418.49362,531.209326 418.780034,531.495467 419.132895,531.495467 L425.951071,531.495467 C426.304159,531.495467 426.590346,531.209371 426.590346,530.856238 C426.5903,530.503059 426.303887,530.216963 425.950799,530.216963 Z M414.535003,520.659796 L415.549711,520.659796 L415.549711,515.518357 L414.718799,515.518357 C414.695184,515.786912 414.715717,516.002844 414.505949,516.165473 C414.296045,516.328238 413.854935,516.409416 413.456295,516.409416 L413.311433,516.409416 L413.311433,517.12017 L414.535003,517.12017 L414.535003,520.659796 Z M414.160476,530.509496 L415.43481,529.561643 C415.874017,529.26 416.162561,528.980295 416.300941,528.722028 C416.439184,528.463807 416.508034,528.186232 416.508034,527.889076 C416.508034,527.403365 416.345541,527.011705 416.021371,526.71328 C415.696793,526.415082 415.270414,526.266142 414.741824,526.266142 C414.232136,526.266142 413.824385,526.416986 413.518844,526.718901 C413.212895,527.020544 413.060465,527.475433 413.060465,528.083887 L414.043399,528.083887 C414.043399,527.720601 414.107581,527.469813 414.23617,527.330527 C414.364623,527.191513 414.540805,527.121847 414.764895,527.121847 C414.988986,527.121847 415.16621,527.192601 415.297065,527.33379 C415.427966,527.475207 415.49319,527.65098 415.49319,527.86102 C415.49319,528.070788 415.432635,528.260249 415.31098,528.430085 C415.189734,528.599921 414.852057,528.886561 414.297858,529.289552 C413.824068,529.636204 413.203059,530.058459 413.010924,530.364952 L413,531.407535 L416.518731,531.407535 L416.518731,530.509496 L414.160476,530.509496 L414.160476,530.509496 Z" id="Shape"></path>
        </g>
    </g>
</svg>