<?xml version="1.0" encoding="UTF-8"?>
<svg width="21px" height="17px" viewBox="0 0 21 17" version="1.1" xmlns="http://www.w3.org/2000/svg" xmlns:xlink="http://www.w3.org/1999/xlink">
    <!-- Generator: Sketch 46.1 (44463) - http://www.bohemiancoding.com/sketch -->
    <title>Group 4</title>
    <desc>Created with Sketch.</desc>
    <defs></defs>
    <g id="Page-1" stroke="none" stroke-width="1" fill="none" fill-rule="evenodd">
        <g id="默认" transform="translate(-577.000000, -515.000000)" fill-rule="nonzero" fill="#E6E6E6">
            <g id="Group-4" transform="translate(577.000000, 515.000000)">
                <path d="M19.587335,13.59066 L0.72551861,13.59066 C0.528913151,13.59066 0.358947891,13.6625211 0.215305211,13.8061241 C0.07182134,13.9496079 0,14.1196923 0,14.316139 L0,15.7670968 C0,15.9635434 0.07182134,16.1336278 0.215344913,16.2774293 C0.3591067,16.4207543 0.529151365,16.4926551 0.725558313,16.4926551 L19.5873747,16.4926551 C19.7836625,16.4926551 19.9539057,16.4207543 20.0975484,16.2774293 C20.2410323,16.1336675 20.312933,15.9635831 20.312933,15.7670968 L20.312933,14.316139 C20.312933,14.1196923 20.2410323,13.9496079 20.0975484,13.8060844 C19.953866,13.6624814 19.7836228,13.59066 19.587335,13.59066 Z" id="Shape"></path>
                <path d="M19.587335,9.23798511 L5.07831266,9.23798511 C4.8817072,9.23798511 4.71174194,9.30988586 4.56813896,9.45348883 C4.42449628,9.596933 4.35279404,9.76717618 4.35279404,9.96354342 L4.35279404,11.4144615 C4.35279404,11.6109082 4.42453598,11.7811514 4.56813896,11.9245161 C4.71186104,12.0681191 4.8818263,12.1401787 5.07831266,12.1401787 L19.587335,12.1401787 C19.7836228,12.1401787 19.953866,12.0681588 20.0975087,11.9245161 C20.2409926,11.7811911 20.3128933,11.6109479 20.3128933,11.4144615 L20.3128933,9.96354342 C20.3128933,9.76721588 20.2409926,9.5969727 20.0975087,9.45348883 C19.953866,9.30972705 19.7836228,9.23798511 19.587335,9.23798511 Z" id="Shape"></path>
                <path d="M19.587335,4.88534988 L2.17651613,4.88534988 C1.97991067,4.88534988 1.809866,4.95709181 1.66634243,5.10069479 C1.52273945,5.24421836 1.45099752,5.41426303 1.45099752,5.61074938 L1.45099752,7.0617469 C1.45099752,7.25815385 1.52273945,7.42831762 1.66634243,7.57172208 C1.81002481,7.71532506 1.97991067,7.78726551 2.17651613,7.78726551 L19.587335,7.78726551 C19.7836228,7.78726551 19.953866,7.71532506 20.0975087,7.57172208 C20.2409926,7.42831762 20.3128933,7.25815385 20.3128933,7.0617469 L20.3128933,5.61074938 C20.3128933,5.41414392 20.2409926,5.24425806 20.0975087,5.10069479 C19.953866,4.95709181 19.7836228,4.88534988 19.587335,4.88534988 Z" id="Shape"></path>
                <path d="M20.0975087,0.747781638 C19.9539057,0.604377171 19.7836625,0.532436725 19.587335,0.532436725 L6.52931017,0.532436725 C6.33270471,0.532436725 6.16266005,0.604377171 6.01913648,0.747781638 C5.8755335,0.891384615 5.80371216,1.06150868 5.80371216,1.25795533 L5.80371216,2.70895285 C5.80371216,2.9053995 5.8755335,3.07536476 6.01913648,3.21900744 C6.16281886,3.36257072 6.33282382,3.43435236 6.52931017,3.43435236 L19.587335,3.43435236 C19.7836228,3.43435236 19.953866,3.36253102 20.0975087,3.21900744 C20.2409926,3.07540447 20.3128933,2.90543921 20.3128933,2.70895285 L20.3128933,1.25795533 C20.3128536,1.06150868 20.2409926,0.891503722 20.0975087,0.747781638 Z" id="Shape"></path>
            </g>
        </g>
    </g>
</svg>