<?xml version="1.0" encoding="UTF-8" standalone="no"?>
<svg width="12px" height="15px" viewBox="0 0 47 61" version="1.1" xmlns="http://www.w3.org/2000/svg" xmlns:xlink="http://www.w3.org/1999/xlink">
    <!-- Generator: Sketch 39.1 (31720) - http://www.bohemiancoding.com/sketch -->
    <title>Page 1</title>
    <desc>Created with Sketch.</desc>
    <defs>
        <polygon id="path-1" points="46.9183417 8.42147964 46.9183417 0.0320739191 0 0.0320739191 0 8.42147964 0 16.8108854 46.9183417 16.8108854"></polygon>
    </defs>
    <g id="Page-1" stroke="none" stroke-width="1" fill="none" fill-rule="evenodd">
        <g id="iPad-Pro-Portrait" transform="translate(-412.000000, -622.000000)">
            <g id="Page-1" transform="translate(412.000000, 622.000000)">
                <g id="Group-3" transform="translate(0.000000, 0.053003)">
                    <mask id="mask-2" fill="white">
                        <use xlink:href="#path-1"></use>
                    </mask>
                    <g id="Clip-2"></g>
                    <path d="M33.6999299,6.50341674 C33.6999299,7.03395509 33.2745629,7.46214616 32.7463201,7.46214616 L14.1698237,7.46214616 C13.6437788,7.46214616 13.2178201,7.03395509 13.2178201,6.50341674 L13.2178201,4.82595927 C13.2178201,4.29644184 13.6437788,3.86782538 14.1698237,3.86782538 L32.7463201,3.86782538 C33.2725342,3.86782538 33.6999299,4.29644184 33.6999299,4.82595927 L33.6999299,6.50341674 Z M42.1557032,7.46206109 L38.461723,7.46206109 C37.935509,7.46206109 37.5101421,7.03387001 37.5101421,6.50333166 L37.5101421,4.82595927 C37.5101421,2.18262594 35.372741,0.0320569038 32.7463201,0.0320569038 L14.1698237,0.0320569038 C11.5434029,0.0320569038 9.40667806,2.18254086 9.40667806,4.82595927 L9.40667806,6.50333166 C9.40667806,7.03387001 8.97970504,7.46206109 8.45475899,7.46206109 L4.76323022,7.46206109 C2.13266727,7.46206109 0,9.60744045 0,12.2558784 L0,15.8512201 C0,16.3817584 0.426973022,16.8108854 0.95318705,16.8108854 L45.9659155,16.8108854 C46.4928058,16.8108854 46.9183417,16.3816734 46.9183417,15.8512201 L46.9183417,12.2558784 C46.9182572,9.60744045 44.7861817,7.46206109 42.1557032,7.46206109 L42.1557032,7.46206109 Z" id="Fill-1" fill="#e6e6e6" mask="url(#mask-2)"></path>
                </g>
                <path d="M33.2406317,41.0182717 C32.6312378,41.6316748 31.9120363,41.9382912 31.0832809,41.9382912 C30.2543565,41.9382912 29.5352396,41.6316748 28.9258457,41.0182717 L26.5124464,38.5893317 L26.5124464,49.7034976 C26.5124464,50.5621768 26.2138781,51.2859244 25.6165723,51.8747403 C25.0193511,52.4636413 24.3063205,52.7580067 23.4774806,52.7580067 C22.6242108,52.7580067 21.8990076,52.4574307 21.3017863,51.8563637 C20.7044806,51.2552968 20.4059122,50.5376748 20.4059122,49.7034976 L20.4059122,38.5893317 L17.9925129,41.0182717 C17.3831191,41.6316748 16.6639176,41.9382912 15.8350777,41.9382912 C15.0062378,41.9382912 14.2871209,41.6316748 13.677727,41.0182717 C13.0682486,40.4048686 12.7635939,39.6811211 12.7635939,38.8469439 C12.7635939,38.0127668 13.0682486,37.2890192 13.677727,36.6757013 L23.4774806,26.8495967 L33.2406317,36.6757013 C33.8501101,37.2890192 34.1547647,38.0127668 34.1547647,38.8469439 C34.1547647,39.6811211 33.8501101,40.4048686 33.2406317,41.0182717 M45.0112576,19.7998854 L1.90448058,19.7998854 C0.852306115,19.7998854 0.0851748201,20.6541406 0.191516547,21.7073902 L3.95811007,59.0609997 C4.06453633,60.1137389 5.00411367,60.9679091 6.05637266,60.9679091 L40.8291029,60.9679091 C41.8813619,60.9679091 42.820432,60.1137389 42.9272809,59.0609997 L46.7220237,21.7073902 C46.8299716,20.6551615 46.063432,19.7998854 45.0112576,19.7998854" id="Fill-4" fill="#e6e6e6"></path>
            </g>
        </g>
    </g>
</svg>