<?xml version="1.0" standalone="no"?><!DOCTYPE svg PUBLIC "-//W3C//DTD SVG 1.1//EN" "http://www.w3.org/Graphics/SVG/1.1/DTD/svg11.dtd"><svg t="1511838450650" class="icon" style="" viewBox="0 0 1093 1024" version="1.1" xmlns="http://www.w3.org/2000/svg" p-id="6111" xmlns:xlink="http://www.w3.org/1999/xlink" width="68.3125" height="64"><defs><style type="text/css"></style></defs><path d="M1037.653893 2.346313 54.612772 2.346313C24.450197 2.346313 0 26.801024 0 56.967704L0 930.756144C0 960.906547 24.450197 985.333897 54.612772 985.333897L1037.653893 985.333897C1067.816468 985.333897 1092.266667 960.906547 1092.266667 930.756144L1092.266667 56.969153C1092.266667 26.801024 1067.816468 2.346313 1037.653893 2.346313L1037.653893 2.346313ZM928.421513 821.5134 163.843805 821.5134 163.843805 548.47592 327.678017 384.62666 600.748846 657.692872 764.583055 493.832667 928.421513 657.692872 928.421513 821.513359 928.421513 821.5134ZM819.195829 384.628055C758.870678 384.628055 709.975757 335.73505 709.975757 275.412498 709.975757 215.068057 758.870815 166.191469 819.195829 166.191469 879.520843 166.191469 928.421376 215.068057 928.421376 275.412498 928.421513 335.73505 879.52098 384.628055 819.195829 384.628055L819.195829 384.628055Z" p-id="6112" fill="#e6e6e6"></path></svg>