<?xml version="1.0" encoding="UTF-8"?>
<svg width="24px" height="16px" viewBox="0 0 24 16" version="1.1" xmlns="http://www.w3.org/2000/svg" xmlns:xlink="http://www.w3.org/1999/xlink">
    <!-- Generator: Sketch 46.1 (44463) - http://www.bohemiancoding.com/sketch -->
    <title>Shape</title>
    <desc>Created with Sketch.</desc>
    <defs></defs>
    <g id="Page-1" stroke="none" stroke-width="1" fill="none" fill-rule="evenodd">
        <g id="默认" transform="translate(-201.000000, -516.000000)" fill-rule="nonzero" fill="#999999">
            <path d="M224.204444,531.403111 C224.000889,531.403111 223.814222,531.286667 223.734222,531.095556 L223.734222,531.095556 C223.675556,530.956889 222.208889,527.667111 216.725333,527.015556 C215.583111,526.876889 214.215111,526.805778 212.553778,526.793333 L212.553778,530.893778 C212.553778,531.083111 212.451556,531.254667 212.283556,531.345333 C212.116444,531.432444 211.916444,531.42 211.760889,531.316 L201.225778,524.224444 C201.083556,524.129333 201,523.969333 201,523.801333 C201,523.631556 201.083556,523.476889 201.225778,523.377333 L211.765333,516.284889 C211.920889,516.177333 212.119111,516.170222 212.288,516.259111 C212.456889,516.349778 212.557333,516.521333 212.557333,516.705333 L212.557333,520.521333 C214.848889,520.82 224.712,522.592444 224.712,530.898222 C224.712,531.139111 224.542222,531.349778 224.304,531.397778 C224.271111,531.403111 224.236444,531.403111 224.204444,531.403111 Z" id="Shape"></path>
        </g>
    </g>
</svg>