<?xml version="1.0" encoding="UTF-8"?>
<svg width="11px" height="11px" viewBox="0 0 11 11" version="1.1" xmlns="http://www.w3.org/2000/svg" xmlns:xlink="http://www.w3.org/1999/xlink">
    <!-- Generator: Sketch 46.1 (44463) - http://www.bohemiancoding.com/sketch -->
    <title>Page 1</title>
    <desc>Created with Sketch.</desc>
    <defs></defs>
    <g id="Page-1" stroke="none" stroke-width="1" fill="none" fill-rule="evenodd">
        <g id="默认" transform="translate(-1203.000000, -272.000000)" fill="#FFFFFF">
            <path d="M1209.17292,277.245068 L1213.2979,273.120087 C1213.55403,272.86395 1213.55403,272.448445 1213.2979,272.192308 C1213.04149,271.935897 1212.62735,271.935897 1212.37094,272.192308 L1208.24514,276.317289 L1204.12016,272.192308 C1203.86374,271.935897 1203.44851,271.935897 1203.1921,272.192308 C1202.93597,272.448445 1202.93597,272.86395 1203.1921,273.120087 L1207.31818,277.245068 L1203.1921,281.37005 C1202.93597,281.62646 1202.93597,282.041692 1203.1921,282.298102 C1203.32031,282.426034 1203.48788,282.490273 1203.65545,282.490273 C1203.82329,282.490273 1203.99195,282.426034 1204.12016,282.298102 L1208.24514,278.173121 L1212.37094,282.298102 C1212.49914,282.426034 1212.66671,282.490273 1212.83455,282.490273 C1213.00212,282.490273 1213.16969,282.426034 1213.2979,282.298102 C1213.55403,282.041692 1213.55403,281.62646 1213.2979,281.37005 L1209.17292,277.245068 Z" id="Page-1"></path>
        </g>
    </g>
</svg>