<?xml version="1.0" encoding="UTF-8"?>
<svg width="24px" height="19px" viewBox="0 0 24 19" version="1.1" xmlns="http://www.w3.org/2000/svg" xmlns:xlink="http://www.w3.org/1999/xlink">
    <!-- Generator: Sketch 46.1 (44463) - http://www.bohemiancoding.com/sketch -->
    <title>Group 3</title>
    <desc>Created with Sketch.</desc>
    <defs>
        <polygon id="path-1" points="23.6295385 9.67455484 23.6295385 0.349354839 0 0.349354839 0 9.67455484 0 18.9997548 23.6295385 18.9997548"></polygon>
    </defs>
    <g id="Page-1" stroke="none" stroke-width="1" fill="none" fill-rule="evenodd">
        <g id="默认" transform="translate(-624.000000, -513.000000)">
            <g id="Page-1" transform="translate(624.000000, 513.000000)">
                <g id="Group-3">
                    <mask id="mask-2" fill="white">
                        <use xlink:href="#path-1"></use>
                    </mask>
                    <g id="Clip-2"></g>
                    <path d="M9.29353846,15.1715613 C9.01230769,15.7795613 8.39876923,16.2036903 7.68246154,16.2036903 C6.96615385,16.2036903 6.35323077,15.7795613 6.072,15.1715613 L3.93723077,15.1715613 C3.53107692,15.1715613 3.19938462,14.8412065 3.19938462,14.4373032 C3.19938462,14.0303355 3.53107692,13.7018194 3.93723077,13.7018194 L6.072,13.7018194 C6.35323077,13.0932065 6.96615385,12.6672387 7.68246154,12.6672387 C8.39876923,12.6672387 9.01230769,13.0932065 9.29353846,13.7018194 L19.6923077,13.7018194 C20.1009231,13.7018194 20.4326154,14.0303355 20.4326154,14.4373032 C20.4326154,14.8412065 20.1009231,15.1715613 19.6923077,15.1715613 L9.29353846,15.1715613 Z M9.94707692,4.17791613 L14.6683077,7.38830323 L9.94707692,10.6011419 L9.94707692,4.17791613 Z M21.6609231,0.349109677 L1.96861538,0.349109677 C0.886769231,0.349109677 0,1.23291613 0,2.3104 L0,17.0396903 C0,18.1165613 0.886769231,18.9997548 1.96861538,18.9997548 L21.6609231,18.9997548 C22.7452308,18.9997548 23.6295385,18.1165613 23.6295385,17.0396903 L23.6295385,2.3104 C23.6295385,1.23291613 22.7452308,0.349109677 21.6609231,0.349109677 L21.6609231,0.349109677 Z" id="Fill-1" fill="#E6E6E6" mask="url(#mask-2)"></path>
                </g>
            </g>
        </g>
    </g>
</svg>