<?xml version="1.0" standalone="no"?><!DOCTYPE svg PUBLIC "-//W3C//DTD SVG 1.1//EN" "http://www.w3.org/Graphics/SVG/1.1/DTD/svg11.dtd"><svg t="1512635606208" class="icon" style="" viewBox="0 0 1024 1024" version="1.1" xmlns="http://www.w3.org/2000/svg" p-id="1024" xmlns:xlink="http://www.w3.org/1999/xlink" width="64" height="64"><defs><style type="text/css"></style></defs><path d="M731.62752 291.730432c-39.378944-105.880576-126.004224-168.87808-249.37472-168.87808-160.123904-1.746944-276.5056 121.622528-284.381184 275.627008-39.370752 13.126656-70.874112 37.622784-96.248832 73.498624s-37.622784 76.12416-37.622784 120.74496c0 55.131136 18.376704 102.376448 56.000512 142.624768 37.622784 40.257536 81.375232 60.381184 133.00224 60.381184h80.49664c16.62976 0 28.000256-13.126656 28.000256-28.000256 0-15.752192-11.370496-28.000256-28.000256-28.000256h-80.49664c-35.87584 0-67.3792-14.882816-94.500864-43.751424-26.252288-28.877824-39.378944-63.876096-39.378944-103.25504 0-34.998272 10.50112-66.501632 32.380928-94.500864 21.871616-28.000256 48.123904-44.6208 78.749696-49.871872l25.37472-4.37248-1.75616-26.253312h-0.869376c0-136.496128 90.99776-238.8736 229.251072-238.8736 104.124416 0 171.4944 49.002496 202.120192 147.87584l6.12864 19.24608 20.123648 0.877568c52.496384 0.877568 97.995776 19.24608 136.497152 56.87808 39.378944 37.622784 58.625024 82.243584 58.625024 133.871616 2.625536 95.379456-65.62304 203.875328-159.246336 202.128384h-63.876096c-35.87584 0-35.87584 56.000512 0 56.000512h63.876096c140.000256-5.251072 213.49888-136.505344 213.49888-258.128896 0-63.876096-21.871616-118.998016-66.501632-165.374976-43.752448-46.373888-97.995776-73.495552-161.871872-80.493568z m-198.62528 223.121408v-0.877568l-6.998016-6.998016c-7.875584-7.875584-21.00224-7.875584-28.877824 0l-6.998016 6.998016v0.877568L388.620288 626.85184c-7.867392 7.875584-7.867392 20.123648 0 29.7472l7.006208 4.381696c7.875584 7.866368 19.24608 5.241856 28.869632-2.625536l59.503616-66.501632v281.747456c0 36.754432 56.000512 36.754432 56.000512 0V591.854592l61.25056 68.248576c7.875584 7.875584 20.123648 10.50112 28.000256 2.625536l6.998016-4.37248c7.875584-9.631744 7.875584-21.880832 0-29.756416L533.00224 514.85184z" fill="#e6e6e6" p-id="1025"></path></svg>