<?xml version="1.0" encoding="UTF-8"?>
<svg width="44px" height="44px" viewBox="0 0 44 44" version="1.1" xmlns="http://www.w3.org/2000/svg"
     xmlns:xlink="http://www.w3.org/1999/xlink">
  <!-- Generator: Sketch 46.1 (44463) - http://www.bohemiancoding.com/sketch -->
  <title>Page 1</title>
  <desc>Created with Sketch.</desc>
  <defs>
    <polygon id="path-1" points="0 44 43.199 44 43.199 0 0 0"></polygon>
  </defs>
  <g id="Page-1" stroke="none" stroke-width="1" fill="none" fill-rule="evenodd">
    <g id="全屏3" transform="translate(-546.000000, -580.000000)">
      <g id="Page-1" transform="translate(546.000000, 580.000000)">
        <path
          d="M18.3979,10.2578 L18.3979,18.5428 L24.9099,14.3978 L18.3979,10.2578 Z M17.2149,20.7028 C16.9609,20.5618 16.8009,20.2928 16.8009,19.9998 L16.8009,8.8008 C16.8009,8.5078 16.9609,8.2378 17.2149,8.0978 C17.4729,7.9568 17.7809,7.9688 18.0309,8.1248 L26.8279,13.7268 C27.0589,13.8708 27.1989,14.1248 27.1989,14.3978 C27.1989,14.6718 27.0589,14.9298 26.8279,15.0738 L18.0309,20.6758 C17.8979,20.7578 17.7499,20.8008 17.6019,20.8008 C17.4689,20.8008 17.3359,20.7658 17.2149,20.7028 Z"
          id="Fill-1" fill="#FFFFFF"></path>
        <mask id="mask-2" fill="white">
          <use xlink:href="#path-1"></use>
        </mask>
        <g id="Clip-4"></g>
        <path
          d="M1.602,42.399 L41.602,42.399 L41.602,29.602 L1.602,29.602 L1.602,42.399 Z M1.602,28 L41.602,28 L41.602,1.602 L1.602,1.602 L1.602,28 Z M0,44 L43.199,44 L43.199,0 L0,0 L0,44 Z"
          id="Fill-3" fill="#FFFFFF" mask="url(#mask-2)"></path>
        <path
          d="M37.6016,35.1992 L18.3976,35.1992 L18.3976,33.6012 C18.3976,33.1562 18.0426,32.8012 17.6016,32.8012 C17.1556,32.8012 16.8006,33.1562 16.8006,33.6012 L16.8006,35.1992 L13.6016,35.1992 C13.1556,35.1992 12.8006,35.5582 12.8006,36.0002 C12.8006,36.4412 13.1556,36.8012 13.6016,36.8012 L16.8006,36.8012 L16.8006,38.3982 C16.8006,38.8442 17.1556,39.1992 17.6016,39.1992 C18.0426,39.1992 18.3976,38.8442 18.3976,38.3982 L18.3976,36.8012 L37.6016,36.8012 C38.0426,36.8012 38.3986,36.4412 38.3986,36.0002 C38.3986,35.5582 38.0426,35.1992 37.6016,35.1992"
          id="Fill-5" fill="#FFFFFF" mask="url(#mask-2)"></path>
        <path
          d="M5.6021,32.8008 C5.1561,32.8008 4.8011,33.1558 4.8011,33.6018 L4.8011,38.3988 C4.8011,38.8438 5.1561,39.1988 5.6021,39.1988 C6.0431,39.1988 6.3981,38.8438 6.3981,38.3988 L6.3981,33.6018 C6.3981,33.1558 6.0431,32.8008 5.6021,32.8008"
          id="Fill-6" fill="#FFFFFF" mask="url(#mask-2)"></path>
        <path
          d="M8.8008,32.8008 C8.3588,32.8008 7.9998,33.1558 7.9998,33.6018 L7.9998,38.3988 C7.9998,38.8438 8.3588,39.1988 8.8008,39.1988 C9.2418,39.1988 9.6018,38.8438 9.6018,38.3988 L9.6018,33.6018 C9.6018,33.1558 9.2418,32.8008 8.8008,32.8008"
          id="Fill-7" fill="#FFFFFF" mask="url(#mask-2)"></path>
      </g>
    </g>
  </g>
</svg>