<?xml version="1.0" encoding="UTF-8"?>
<svg width="20px" height="16px" viewBox="0 0 20 16" version="1.1" xmlns="http://www.w3.org/2000/svg" xmlns:xlink="http://www.w3.org/1999/xlink">
    <!-- Generator: Sketch 46.1 (44463) - http://www.bohemiancoding.com/sketch -->
    <title>Shape</title>
    <desc>Created with Sketch.</desc>
    <defs></defs>
    <g id="Page-1" stroke="none" stroke-width="1" fill="none" fill-rule="evenodd">
        <g id="默认" transform="translate(-537.000000, -515.000000)" fill-rule="nonzero" fill="#E6E6E6">
            <path d="M556.618831,528.844088 L556.618831,530.245471 C556.618831,530.435206 556.549387,530.599479 556.410806,530.738367 C556.272109,530.876795 556.107683,530.94624 555.918063,530.94624 L537.70073,530.94624 C537.511034,530.94624 537.346799,530.876795 537.207949,530.738367 C537.069367,530.599479 537,530.435206 537,530.245471 L537,528.844088 C537,528.654353 537.069367,528.49008 537.207987,528.35146 C537.346722,528.212763 537.510842,528.143358 537.700768,528.143358 L555.91814,528.143358 C556.107721,528.143358 556.272148,528.212763 556.410882,528.35146 C556.549426,528.49008 556.618831,528.654353 556.618831,528.844088 Z M541.904804,523.939437 C541.714916,523.939437 541.550757,524.008882 541.412061,524.147578 C541.273326,524.286121 541.204074,524.450548 541.204074,524.640206 L541.204074,526.041551 C541.204074,526.231286 541.273364,526.395712 541.412061,526.534179 C541.550873,526.672875 541.715031,526.742473 541.904804,526.742473 L551.714143,526.742473 C551.903877,526.742473 552.068189,526.672914 552.20677,526.534179 C552.345467,526.395751 552.414911,526.231324 552.414911,526.041551 L552.414911,524.640206 C552.414911,524.450586 552.345467,524.28616 552.20677,524.147578 C552.068227,524.008882 551.903916,523.939437 551.714143,523.939437 L541.904804,523.939437 Z M539.102152,522.538284 L554.516718,522.538284 C554.706491,522.538284 554.870764,522.468802 555.009384,522.330105 C555.147927,522.1916 555.217218,522.02725 555.217218,521.837554 L555.217218,520.436132 C555.217218,520.246244 555.147927,520.082163 555.009384,519.943504 C554.870802,519.804808 554.706529,519.735517 554.516718,519.735517 L539.102152,519.735517 C538.912264,519.735517 538.748029,519.804808 538.609409,519.943504 C538.470713,520.082124 538.401422,520.246359 538.401422,520.436132 L538.401422,521.837554 C538.401422,522.02725 538.470713,522.1916 538.609409,522.330105 C538.748182,522.468802 538.912264,522.538284 539.102152,522.538284 Z M543.306225,518.334095 L550.312529,518.334095 C550.502264,518.334095 550.66669,518.264728 550.805425,518.126108 C550.943968,517.987412 551.013413,517.823253 551.013413,517.63348 L551.013413,516.232059 C551.013413,516.042324 550.943968,515.878166 550.805694,515.739316 C550.666882,515.600811 550.502571,515.531328 550.312798,515.531328 L543.306225,515.531328 C543.116337,515.531328 542.952103,515.600811 542.813483,515.739316 C542.674786,515.878012 542.605419,516.042324 542.605419,516.232059 L542.605419,517.63348 C542.605419,517.823215 542.674786,517.987373 542.813483,518.126108 C542.952256,518.264728 543.116452,518.334095 543.306225,518.334095 Z" id="Shape"></path>
        </g>
    </g>
</svg>